<?xml version="1.0" encoding="utf-8"?>
<!-- Generator: Adobe Illustrator 25.1.0, SVG Export Plug-In . SVG Version: 6.00 Build 0)  -->
<svg version="1.1" id="Layer_1" xmlns="http://www.w3.org/2000/svg" xmlns:xlink="http://www.w3.org/1999/xlink" x="0px" y="0px"
	 viewBox="0 0 60 60" style="enable-background:new 0 0 60 60;" xml:space="preserve">
<style type="text/css">
	.st0{fill:none;stroke:#BDC3C7;stroke-width:4;stroke-miterlimit:10;}
	.st1{fill:none;stroke:#BDC3C7;stroke-width:4;stroke-linejoin:round;stroke-miterlimit:10;}
	.st2{fill:none;stroke:#BDC3C7;stroke-width:2;stroke-linejoin:round;stroke-miterlimit:10;}
	.st3{fill:#BDC3C7;stroke:#BDC3C7;stroke-width:2;stroke-linejoin:round;stroke-miterlimit:10;}
</style>
<circle class="st0" cx="30" cy="30" r="24.5"/>
<rect x="6" y="29.5" class="st1" width="7" height="1"/>
<rect x="47" y="29.5" class="st1" width="7" height="1"/>
<rect x="26.5" y="50" transform="matrix(2.234752e-11 -1 1 2.234752e-11 -20.5 80.5)" class="st1" width="7" height="1"/>
<rect x="26.5" y="9" transform="matrix(2.234752e-11 -1 1 2.234752e-11 20.5 39.5)" class="st1" width="7" height="1"/>
<rect x="12" y="44.5" transform="matrix(0.7071 -0.7071 0.7071 0.7071 -27.28 24.1404)" class="st2" width="7" height="1"/>
<rect x="41" y="15.5" transform="matrix(0.7071 -0.7071 0.7071 0.7071 1.7114 36.149)" class="st2" width="7" height="1"/>
<rect x="41" y="44.5" transform="matrix(-0.7071 -0.7071 0.7071 -0.7071 44.1317 108.28)" class="st2" width="7" height="1"/>
<rect x="12" y="15.5" transform="matrix(-0.7071 -0.7071 0.7071 -0.7071 15.1404 38.2886)" class="st2" width="7" height="1"/>
<circle class="st3" cx="30" cy="30" r="3"/>
</svg>
