<?xml version="1.0" encoding="utf-8"?>
<!-- Generator: Adobe Illustrator 25.1.0, SVG Export Plug-In . SVG Version: 6.00 Build 0)  -->
<svg version="1.1" id="Layer_1" xmlns="http://www.w3.org/2000/svg" xmlns:xlink="http://www.w3.org/1999/xlink" x="0px" y="0px"
	 viewBox="0 0 400 400" style="enable-background:new 0 0 400 400;" xml:space="preserve">
<style type="text/css">
	.st0{fill:none;stroke:#FFFFFF;stroke-width:4;stroke-linejoin:round;stroke-miterlimit:10;}
	.st1{fill:#FFFFFF;stroke:#FFFFFF;stroke-width:4;stroke-linejoin:round;stroke-miterlimit:10;}
</style>
<g id="Layer_2_1_">
	<rect x="3.9" y="152.5" class="st0" width="42.9" height="42.9"/>
	<rect x="3.9" y="195.4" class="st0" width="42.9" height="42.9"/>
	<rect x="46.8" y="152.5" class="st0" width="42.9" height="42.9"/>
	<rect x="46.8" y="195.4" class="st0" width="42.9" height="42.9"/>
	<rect x="89.7" y="152.5" class="st0" width="42.9" height="42.9"/>
	<rect x="89.7" y="195.4" class="st0" width="42.9" height="42.9"/>
	<rect x="267.1" y="152.5" class="st0" width="42.9" height="42.9"/>
	<rect x="267.1" y="195.4" class="st0" width="42.9" height="42.9"/>
	<rect x="310" y="152.5" class="st0" width="42.9" height="42.9"/>
	<rect x="310" y="195.4" class="st0" width="42.9" height="42.9"/>
	<rect x="352.9" y="152.5" class="st0" width="42.9" height="42.9"/>
	<rect x="352.9" y="195.4" class="st0" width="42.9" height="42.9"/>
	<path class="st0" d="M225,225.4h-52c-6.6,0-12-5.4-12-12v-98.9c0-6.6,5.4-12,12-12h52c6.6,0,12,5.4,12,12v98.9
		C237,220.1,231.7,225.4,225,225.4z"/>
	<rect x="191.7" y="225.4" class="st0" width="12.7" height="15.8"/>
	<path class="st0" d="M153.7,284c0-23.6,19.8-42.7,44.3-42.7"/>
	<path class="st0" d="M242.3,284c0-23.6-19.8-42.7-44.3-42.7"/>
	<line class="st0" x1="153.7" y1="281.4" x2="242.3" y2="281.4"/>
	<line class="st0" x1="220.2" y1="281.4" x2="198" y2="306.7"/>
	<line class="st0" x1="175.9" y1="281.4" x2="198" y2="306.7"/>
	<ellipse class="st1" cx="198" cy="305.2" rx="6.3" ry="5.7"/>
</g>
<line class="st0" x1="267.1" y1="195.4" x2="237" y2="195.4"/>
<line class="st0" x1="132.6" y1="195.4" x2="161" y2="195.4"/>
</svg>
