<?xml version="1.0" encoding="utf-8"?>
<!-- Generator: Adobe Illustrator 25.1.0, SVG Export Plug-In . SVG Version: 6.00 Build 0)  -->
<svg version="1.1"
	 id="layer1-7" xmlns:inkscape="http://www.inkscape.org/namespaces/inkscape" xmlns:sodipodi="http://sodipodi.sourceforge.net/DTD/sodipodi-0.dtd" xmlns:svg="http://www.w3.org/2000/svg"
	 xmlns="http://www.w3.org/2000/svg" xmlns:xlink="http://www.w3.org/1999/xlink" x="0px" y="0px" viewBox="0 0 32 32"
	 style="enable-background:new 0 0 32 32;" xml:space="preserve">
<style type="text/css">
	.st0{fill:#9DA0A3;}
</style>
<path id="path14539" class="st0" d="M7.2,15.7l-2.5,2.7c0,0,5.6,5.3,11.3,5.3s11.2-5.4,11.2-5.4l-2.3-2.7c0,0-4.3,4.5-8.9,4.5
	C11.4,20.1,7.2,15.7,7.2,15.7z M12.5,1c-1.4,0-2.6,0.9-2.6,2.1v0.7l0,0v2.1l0,0v1.4l0,0v2.1l0,0v1.4l0,0v2.1l0,0V15
	c0,1.2,1.1,2.1,2.6,2.1h6.9c1.4,0,2.6-0.9,2.6-2.1V3.1C22,1.9,20.9,1,19.4,1H12.5z M12.9,23v7c0,0.6,0.6,1,1.4,1h3.2
	c0.8,0,1.4-0.5,1.4-1v-7H12.9z"/>
</svg>
