<?xml version="1.0" encoding="utf-8"?>
<!-- Generator: Adobe Illustrator 25.1.0, SVG Export Plug-In . SVG Version: 6.00 Build 0)  -->
<svg version="1.1" id="Layer_1" xmlns="http://www.w3.org/2000/svg" xmlns:xlink="http://www.w3.org/1999/xlink" x="0px" y="0px"
	 viewBox="0 0 40 40" style="enable-background:new 0 0 40 40;" xml:space="preserve">
<style type="text/css">
	.st0{fill:#9DA0A3;}
	.st1{fill:#9DA0A3;stroke:#9DA0A3;stroke-width:5;stroke-miterlimit:10;}
	.st2{fill:#9DA0A3;stroke:#BDC3C7;stroke-miterlimit:10;}
	.st3{fill:none;stroke:#9DA0A3;stroke-width:5;stroke-miterlimit:10;}
</style>
<g id="Layer_1_1_">
</g>
<path class="st0" d="M35.3,23h-8.3c-1.7,0-3.1,1.4-3.1,3.2v8.6c0,1.8,1.3,3.2,3.1,3.2h6.3c1.7,0,3.1-1.4,3.1-3.2V24.2
	C36.5,23.5,36,23,35.3,23z"/>
<path class="st1" d="M21,6.5"/>
<path class="st2" d="M5.5,25"/>
<path class="st3" d="M6,20c0-8.3,6.3-15,14-15"/>
<path class="st3" d="M34,20c0-8.3-6.3-15-14-15"/>
<rect x="3.5" y="20" class="st0" width="5" height="6"/>
<rect x="31.5" y="20" class="st0" width="5" height="6"/>
<path class="st0" d="M4.7,23h8.3c1.7,0,3.1,1.4,3.1,3.2v8.6c0,1.8-1.3,3.2-3.1,3.2H6.6c-1.7,0-3.1-1.4-3.1-3.2V24.2
	C3.5,23.5,4,23,4.7,23z"/>
</svg>
