<?xml version="1.0" encoding="UTF-8" standalone="no"?>
<svg
   xmlns:dc="http://purl.org/dc/elements/1.1/"
   xmlns:cc="http://creativecommons.org/ns#"
   xmlns:rdf="http://www.w3.org/1999/02/22-rdf-syntax-ns#"
   xmlns:svg="http://www.w3.org/2000/svg"
   xmlns="http://www.w3.org/2000/svg"
   xmlns:sodipodi="http://sodipodi.sourceforge.net/DTD/sodipodi-0.dtd"
   xmlns:inkscape="http://www.inkscape.org/namespaces/inkscape"
   width="20.0px"
   height="20.0px"
   viewBox="0 0 20.0 20.0"
   version="1.1"
   id="SVGRoot"
   sodipodi:docname="occlusion_loading.svg"
   inkscape:version="1.0.1 (3bc2e813f5, 2020-09-07)">
  <defs
     id="defs833" />
  <sodipodi:namedview
     id="base"
     pagecolor="#ffffff"
     bordercolor="#666666"
     borderopacity="1.0"
     inkscape:pageopacity="0.0"
     inkscape:pageshadow="2"
     inkscape:zoom="22.4"
     inkscape:cx="14.40483"
     inkscape:cy="10.353706"
     inkscape:document-units="px"
     inkscape:current-layer="layer1"
     inkscape:document-rotation="0"
     showgrid="true"
     inkscape:window-width="1920"
     inkscape:window-height="1017"
     inkscape:window-x="-8"
     inkscape:window-y="-8"
     inkscape:window-maximized="1">
    <inkscape:grid
       type="xygrid"
       id="grid1403" />
  </sodipodi:namedview>
  <metadata
     id="metadata836">
    <rdf:RDF>
      <cc:Work
         rdf:about="">
        <dc:format>image/svg+xml</dc:format>
        <dc:type
           rdf:resource="http://purl.org/dc/dcmitype/StillImage" />
        <dc:title></dc:title>
      </cc:Work>
    </rdf:RDF>
  </metadata>
  <g
     inkscape:label="Layer 1"
     inkscape:groupmode="layer"
     id="layer1">
    <path
       id="path1410"
       style="fill:#bdc3c7;stroke-width:3.002;stroke-linejoin:round;fill-opacity:1"
       d="M 9.9804688 0 A 10 10 0 0 0 0 10 A 10 10 0 0 0 10 20 A 10 10 0 0 0 20 10 A 10 10 0 0 0 10 0 A 10 10 0 0 0 9.9804688 0 z M 10 4 A 6 6 0 0 1 16 10 A 6 6 0 0 1 10 16 A 6 6 0 0 1 4 10 A 6 6 0 0 1 10 4 z " />
    <path
       id="path1410-6"
       style="fill:#7f2edb;fill-opacity:1;stroke-width:3.002;stroke-linejoin:round"
       d="M 10,0 C 5.5151413,0.00902908 1.5848084,3.0028839 0.384765,7.3242188 0,7 4,9 4,9 4.4569838,6.0800598 7.0640471,4.0000532 10.019531,4 12.976915,4.0005037 15.492875,6.1558568 15.947265,9.078125 15.947265,9.078125 20,7 19.65625,7.3339844 18.457718,3.001102 14.515123,6.0660775e-4 10.019531,0 Z"
       sodipodi:nodetypes="cccccccc" />
  </g>
</svg>
