<?xml version="1.0" encoding="UTF-8" standalone="no"?>
<!-- Created with Inkscape (http://www.inkscape.org/) -->

<svg
   width="32"
   height="32"
   viewBox="0 0 8.4666667 8.4666667"
   version="1.1"
   id="svg5"
   inkscape:version="1.1 (c68e22c387, 2021-05-23)"
   sodipodi:docname="occlusion_mic.svg"
   xmlns:inkscape="http://www.inkscape.org/namespaces/inkscape"
   xmlns:sodipodi="http://sodipodi.sourceforge.net/DTD/sodipodi-0.dtd"
   xmlns="http://www.w3.org/2000/svg"
   xmlns:svg="http://www.w3.org/2000/svg">
  <sodipodi:namedview
     id="namedview7"
     pagecolor="#505050"
     bordercolor="#ffffff"
     borderopacity="1"
     inkscape:pageshadow="0"
     inkscape:pageopacity="0"
     inkscape:pagecheckerboard="1"
     inkscape:document-units="px"
     showgrid="false"
     inkscape:zoom="5.12"
     inkscape:cx="-36.230468"
     inkscape:cy="-10.058594"
     inkscape:window-width="1920"
     inkscape:window-height="1009"
     inkscape:window-x="1912"
     inkscape:window-y="-8"
     inkscape:window-maximized="1"
     inkscape:current-layer="svg1434" />
  <defs
     id="defs2">
    <defs
       id="defs15" />
  </defs>
  <g
     inkscape:label="Layer 1"
     inkscape:groupmode="layer"
     id="layer1">
    <g
       id="g40"
       transform="matrix(0.00822737,0,0,0.00822737,0.11927006,0.00157214)">
      <svg
         id="svg1434"
         version="1.1"
         width="100%"
         height="100%">
        <defs
           id="defs9" />
        <g
           id="g1120">
          <svg
             id="SVGRoot"
             width="1024"
             height="1024"
             version="1.1">
            <svg
               id="layer1-7"
               version="1.1"
               width="100%"
               height="100%">
              <path
                 id="path1410"
                 style="color:#000000;fill:#bdc3c7;stroke-width:2.2891;-inkscape-stroke:none"
                 d="m 603.11782,801.83479 c -0.63497,29.21084 1.3219,58.58609 -1.07204,87.68541 -11.40761,36.31556 -52.80299,34.01487 -83.48681,33.28741 -37.52351,-1.45899 -75.72947,3.33176 -112.71213,-3.27089 -29.08372,-6.91896 -35.00768,-37.73617 -32.301,-63.27142 0,-16.28013 0,-32.56026 0,-48.84039 -56.40295,14.43176 -139.41603,27.34508 -157.40283,93.5875 39.35217,104.80749 186.48057,99.63019 279.63188,107.71979 94.18936,-6.7766 227.17373,-4.7857 278.74432,-98.82447 0.62224,-79.87468 -114.30644,-93.73913 -171.40139,-108.07294 z" />
              <path
                 style="color:#000000;fill:#bdc3c7;stroke-width:22.8786;-inkscape-stroke:none"
                 d="m 408.35221,648.73585 c 0.48941,67.29741 -0.9845,134.71934 0.74708,201.93797 12.07622,31.62863 50.2836,21.40066 76.79428,23.16892 26.89086,-2.42992 61.68961,8.7583 79.56776,-17.71206 6.11417,-29.29996 1.41441,-60.31742 2.89088,-90.34697 0,-39.01595 0,-78.03191 0,-117.04786 -53.33333,0 -106.66667,0 -160,0 z"
                 id="rect14128" />
              <path
                 style="color:#000000;fill:#bdc3c7;stroke-width:3.18857;-inkscape-stroke:none"
                 d="m 397.08805,28.115471 c -37.94211,-2.062626 -74.80956,31.245455 -68.73584,70.375567 0.2337,109.860492 -0.46865,219.748272 0.35358,329.591592 5.04589,40.94275 50.14511,57.24289 86.44495,53.02845 59.6886,-0.72541 119.53702,1.49684 179.11941,-1.19627 34.41452,-4.14831 60.19712,-37.17451 54.84932,-71.43713 C 648.88425,299.36985 649.59025,190.23457 648.76589,81.143918 643.72,40.20117 598.62078,23.901028 562.32094,28.115471 c -55.07763,0 -110.15526,0 -165.23289,0 z"
                 id="rect834" />
            </svg>
          </svg>
          <path
             style="color:#000000;fill:#bdc3c7;stroke-width:24.79452739;paint-order:stroke fill markers;stroke:#bdc3c7;stroke-opacity:1;stroke-miterlimit:4;stroke-dasharray:none;stroke-linejoin:round"
             d="m 241.69013,445.41868 -68.83302,76.00989 c 0,0 157.0959,148.83631 315.09171,148.83631 C 645.94461,670.26488 800.00001,520 800.00001,520 l -64.98575,-75.69166 c 0,0 -119.69805,124.42731 -246.66208,124.42751 C 360.82742,568.73557 241.69013,445.41868 241.69013,445.41868 Z"
             id="path14539"
             sodipodi:nodetypes="ccscccc" />
        </g>
      </svg>
    </g>
  </g>
</svg>
