<?xml version="1.0" encoding="utf-8"?>
<!-- Generator: Adobe Illustrator 25.1.0, SVG Export Plug-In . SVG Version: 6.00 Build 0)  -->
<svg version="1.1" id="Layer_1" xmlns="http://www.w3.org/2000/svg" xmlns:xlink="http://www.w3.org/1999/xlink" x="0px" y="0px"
	 viewBox="0 0 1024 1024" style="enable-background:new 0 0 1024 1024;" xml:space="preserve">
<style type="text/css">
	.st0{fill:#FFFFFF;stroke:#000000;stroke-width:1.1373;stroke-miterlimit:10;}
	.st1{fill:#FFFFFF;stroke:#000000;stroke-width:1.1286;stroke-miterlimit:10;}
	.st2{fill:#FFFFFF;stroke:#000000;stroke-width:0.9499;stroke-miterlimit:10;}
	.st3{fill:#FFFFFF;stroke:#000000;stroke-width:1.1344;stroke-miterlimit:10;}
	.st4{fill:#FFFFFF;stroke:#000000;stroke-width:0.9388;stroke-miterlimit:10;}
	.st5{fill:#FFFFFF;stroke:#000000;stroke-width:1.0138;stroke-miterlimit:10;}
	.st6{fill:#FFFFFF;stroke:#000000;stroke-width:0.9628;stroke-miterlimit:10;}
	.st7{fill:#FFFFFF;stroke:#000000;stroke-width:1.0658;stroke-miterlimit:10;}
	.st8{fill:#FFFFFF;stroke:#000000;stroke-width:1.0501;stroke-miterlimit:10;}
	.st9{fill:#FFFFFF;stroke:#000000;stroke-width:0.9739;stroke-miterlimit:10;}
	.st10{fill:#FFFFFF;stroke:#000000;stroke-width:1.135;stroke-miterlimit:10;}
	.st11{fill:#FFFFFF;stroke:#000000;stroke-width:0.9751;stroke-miterlimit:10;}
	.st12{fill:#FFFFFF;stroke:#000000;stroke-width:0.946;stroke-miterlimit:10;}
	.st13{fill:#FFFFFF;stroke:#000000;stroke-width:1.0419;stroke-miterlimit:10;}
	.st14{fill:#FFFFFF;stroke:#000000;stroke-width:1.0028;stroke-miterlimit:10;}
	.st15{fill:#FFFFFF;stroke:#000000;stroke-width:1.0088;stroke-miterlimit:10;}
	.st16{fill:#FFFFFF;stroke:#000000;stroke-width:1.047;stroke-miterlimit:10;}
	.st17{fill:#FFFFFF;stroke:#000000;stroke-width:1.0957;stroke-miterlimit:10;}
	.st18{fill:#FFFFFF;stroke:#000000;stroke-width:0.9713;stroke-miterlimit:10;}
	.st19{fill:#FFFFFF;stroke:#000000;stroke-width:1.1225;stroke-miterlimit:10;}
	.st20{fill:#FFFFFF;stroke:#000000;stroke-width:1.0349;stroke-miterlimit:10;}
	.st21{fill:#FFFFFF;stroke:#000000;stroke-width:1.113;stroke-miterlimit:10;}
	.st22{fill:#FFFFFF;stroke:#000000;stroke-width:1.083;stroke-miterlimit:10;}
	.st23{fill:#FFFFFF;stroke:#000000;stroke-width:1.1015;stroke-miterlimit:10;}
	.st24{fill:#FFFFFF;stroke:#000000;stroke-width:1.148;stroke-miterlimit:10;}
	.st25{fill:#FFFFFF;stroke:#000000;stroke-width:1.0069;stroke-miterlimit:10;}
	.st26{fill:#FFFFFF;stroke:#000000;stroke-width:0.993;stroke-miterlimit:10;}
	.st27{fill:#FFFFFF;stroke:#000000;stroke-width:1.0836;stroke-miterlimit:10;}
	.st28{fill:#FFFFFF;stroke:#000000;stroke-width:0.9712;stroke-miterlimit:10;}
	.st29{fill:#FFFFFF;stroke:#000000;stroke-width:0.9994;stroke-miterlimit:10;}
	.st30{fill:#FFFFFF;stroke:#000000;stroke-width:1.1435;stroke-miterlimit:10;}
	.st31{fill:#FFFFFF;stroke:#000000;stroke-width:1.0086;stroke-miterlimit:10;}
	.st32{fill:#FFFFFF;stroke:#000000;stroke-width:0.9447;stroke-miterlimit:10;}
	.st33{fill:#FFFFFF;stroke:#000000;stroke-width:1.1499;stroke-miterlimit:10;}
	.st34{fill:#FFFFFF;stroke:#000000;stroke-width:1.092;stroke-miterlimit:10;}
	.st35{fill:#FFFFFF;stroke:#000000;stroke-width:1.1094;stroke-miterlimit:10;}
	.st36{fill:#FFFFFF;stroke:#000000;stroke-width:1.0626;stroke-miterlimit:10;}
	.st37{fill:#FFFFFF;stroke:#000000;stroke-width:1.0218;stroke-miterlimit:10;}
	.st38{fill:#FFFFFF;stroke:#000000;stroke-width:1.023;stroke-miterlimit:10;}
	.st39{fill:#FFFFFF;stroke:#000000;stroke-width:1.0267;stroke-miterlimit:10;}
	.st40{fill:#FFFFFF;stroke:#000000;stroke-width:1.0064;stroke-miterlimit:10;}
	.st41{fill:#FFFFFF;stroke:#000000;stroke-width:0.9929;stroke-miterlimit:10;}
	.st42{fill:#FFFFFF;stroke:#000000;stroke-width:1.064;stroke-miterlimit:10;}
	.st43{fill:#FFFFFF;stroke:#000000;stroke-width:0.9706;stroke-miterlimit:10;}
	.st44{fill:#FFFFFF;stroke:#000000;stroke-width:0.9782;stroke-miterlimit:10;}
	.st45{fill:#FFFFFF;stroke:#000000;stroke-width:1.0695;stroke-miterlimit:10;}
	.st46{fill:#FFFFFF;stroke:#000000;stroke-width:0.9569;stroke-miterlimit:10;}
	.st47{fill:#FFFFFF;stroke:#000000;stroke-width:1.1158;stroke-miterlimit:10;}
	.st48{fill:#FFFFFF;stroke:#000000;stroke-width:1.1395;stroke-miterlimit:10;}
	.st49{fill:#FFFFFF;stroke:#000000;stroke-width:1.0289;stroke-miterlimit:10;}
	.st50{fill:#FFFFFF;stroke:#000000;stroke-width:0.9661;stroke-miterlimit:10;}
	.st51{fill:#FFFFFF;stroke:#000000;stroke-width:1.0293;stroke-miterlimit:10;}
	.st52{fill:#FFFFFF;stroke:#000000;stroke-width:0.9838;stroke-miterlimit:10;}
	.st53{fill:#FFFFFF;stroke:#000000;stroke-width:0.9413;stroke-miterlimit:10;}
	.st54{fill:#FFFFFF;stroke:#000000;stroke-width:1.0756;stroke-miterlimit:10;}
	.st55{fill:#FFFFFF;stroke:#000000;stroke-width:1.0048;stroke-miterlimit:10;}
	.st56{fill:#FFFFFF;stroke:#000000;stroke-width:1.1352;stroke-miterlimit:10;}
	.st57{fill:#FFFFFF;stroke:#000000;stroke-width:0.9982;stroke-miterlimit:10;}
	.st58{fill:#FFFFFF;stroke:#000000;stroke-width:1.0901;stroke-miterlimit:10;}
	.st59{fill:#FFFFFF;stroke:#000000;stroke-width:0.9638;stroke-miterlimit:10;}
	.st60{fill:#FFFFFF;stroke:#000000;stroke-width:1.1209;stroke-miterlimit:10;}
	.st61{fill:#FFFFFF;stroke:#000000;stroke-width:1.0549;stroke-miterlimit:10;}
	.st62{fill:#FFFFFF;stroke:#000000;stroke-width:1.0165;stroke-miterlimit:10;}
	.st63{fill:#FFFFFF;stroke:#000000;stroke-width:1.0385;stroke-miterlimit:10;}
	.st64{fill:#FFFFFF;stroke:#000000;stroke-width:0.9567;stroke-miterlimit:10;}
	.st65{fill:#FFFFFF;stroke:#000000;stroke-width:0.9304;stroke-miterlimit:10;}
	.st66{fill:#FFFFFF;stroke:#000000;stroke-width:1.0667;stroke-miterlimit:10;}
	.st67{fill:#FFFFFF;stroke:#000000;stroke-width:1.0488;stroke-miterlimit:10;}
	.st68{fill:#FFFFFF;stroke:#000000;stroke-width:0.9524;stroke-miterlimit:10;}
	.st69{fill:#FFFFFF;stroke:#000000;stroke-width:1.1145;stroke-miterlimit:10;}
	.st70{fill:#FFFFFF;stroke:#000000;stroke-width:1.0555;stroke-miterlimit:10;}
	.st71{fill:#FFFFFF;stroke:#000000;stroke-width:1.1262;stroke-miterlimit:10;}
	.st72{fill:#FFFFFF;stroke:#000000;stroke-width:1.0646;stroke-miterlimit:10;}
	.st73{fill:#FFFFFF;stroke:#000000;stroke-width:0.9519;stroke-miterlimit:10;}
	.st74{fill:#FFFFFF;stroke:#000000;stroke-width:1.0223;stroke-miterlimit:10;}
	.st75{fill:#FFFFFF;stroke:#000000;stroke-width:1.0107;stroke-miterlimit:10;}
	.st76{fill:#FFFFFF;stroke:#000000;stroke-width:1.149;stroke-miterlimit:10;}
	.st77{fill:#FFFFFF;stroke:#000000;stroke-width:1.1244;stroke-miterlimit:10;}
	.st78{fill:#FFFFFF;stroke:#000000;stroke-width:1.0506;stroke-miterlimit:10;}
	.st79{fill:#FFFFFF;stroke:#000000;stroke-width:1.1102;stroke-miterlimit:10;}
	.st80{fill:#FFFFFF;stroke:#000000;stroke-width:1.0823;stroke-miterlimit:10;}
	.st81{fill:#FFFFFF;stroke:#000000;stroke-width:0.9799;stroke-miterlimit:10;}
	.st82{fill:#FFFFFF;stroke:#000000;stroke-width:0.9318;stroke-miterlimit:10;}
	.st83{fill:#FFFFFF;stroke:#000000;stroke-width:1.1195;stroke-miterlimit:10;}
	.st84{fill:#FFFFFF;stroke:#000000;stroke-width:1.0116;stroke-miterlimit:10;}
	.st85{fill:#FFFFFF;stroke:#000000;stroke-width:1.0279;stroke-miterlimit:10;}
	.st86{fill:#FFFFFF;stroke:#000000;stroke-width:1.0263;stroke-miterlimit:10;}
	.st87{fill:#FFFFFF;stroke:#000000;stroke-width:1.142;stroke-miterlimit:10;}
	.st88{fill:#FFFFFF;stroke:#000000;stroke-width:1.1322;stroke-miterlimit:10;}
	.st89{fill:#FFFFFF;stroke:#000000;stroke-width:0.984;stroke-miterlimit:10;}
	.st90{fill:#FFFFFF;stroke:#000000;stroke-width:1.0414;stroke-miterlimit:10;}
	.st91{fill:#FFFFFF;stroke:#000000;stroke-width:1.0603;stroke-miterlimit:10;}
	.st92{fill:#FFFFFF;stroke:#000000;stroke-width:1.0876;stroke-miterlimit:10;}
	.st93{fill:#FFFFFF;stroke:#000000;stroke-width:0.9466;stroke-miterlimit:10;}
	.st94{fill:#FFFFFF;stroke:#000000;stroke-width:1.0703;stroke-miterlimit:10;}
	.st95{fill:#FFFFFF;stroke:#000000;stroke-width:1.1336;stroke-miterlimit:10;}
	.st96{fill:#FFFFFF;stroke:#000000;stroke-width:0.9575;stroke-miterlimit:10;}
	.st97{fill:#FFFFFF;stroke:#000000;stroke-width:1.1206;stroke-miterlimit:10;}
	.st98{fill:#FFFFFF;stroke:#000000;stroke-width:1.0582;stroke-miterlimit:10;}
	.st99{fill:#FFFFFF;stroke:#000000;stroke-width:0.9955;stroke-miterlimit:10;}
	.st100{fill:#FFFFFF;stroke:#000000;stroke-width:1.04;stroke-miterlimit:10;}
	.st101{fill:#FFFFFF;stroke:#000000;stroke-width:1.1371;stroke-miterlimit:10;}
	.st102{fill:#FFFFFF;stroke:#000000;stroke-width:1.0395;stroke-miterlimit:10;}
	.st103{fill:#FFFFFF;stroke:#000000;stroke-width:1.0838;stroke-miterlimit:10;}
	.st104{fill:#FFFFFF;stroke:#000000;stroke-width:1.1012;stroke-miterlimit:10;}
	.st105{fill:#FFFFFF;stroke:#000000;stroke-width:0.9624;stroke-miterlimit:10;}
	.st106{fill:#FFFFFF;stroke:#000000;stroke-width:0.9449;stroke-miterlimit:10;}
	.st107{fill:#FFFFFF;stroke:#000000;stroke-width:1.12;stroke-miterlimit:10;}
	.st108{fill:#FFFFFF;stroke:#000000;stroke-width:1.0728;stroke-miterlimit:10;}
	.st109{fill:#FFFFFF;stroke:#000000;stroke-width:1.0676;stroke-miterlimit:10;}
	.st110{fill:#FFFFFF;stroke:#000000;stroke-width:0.9472;stroke-miterlimit:10;}
	.st111{fill:#FFFFFF;stroke:#000000;stroke-width:1.1409;stroke-miterlimit:10;}
	.st112{fill:#FFFFFF;stroke:#000000;stroke-width:1.0469;stroke-miterlimit:10;}
	.st113{fill:#FFFFFF;stroke:#000000;stroke-width:1.0472;stroke-miterlimit:10;}
	.st114{fill:#FFFFFF;stroke:#000000;stroke-width:0.9888;stroke-miterlimit:10;}
	.st115{fill:#FFFFFF;stroke:#000000;stroke-width:0.9793;stroke-miterlimit:10;}
	.st116{fill:#FFFFFF;stroke:#000000;stroke-width:1.1029;stroke-miterlimit:10;}
	.st117{fill:#FFFFFF;stroke:#000000;stroke-width:1.0771;stroke-miterlimit:10;}
	.st118{fill:#FFFFFF;stroke:#000000;stroke-width:1.1184;stroke-miterlimit:10;}
	.st119{fill:#FFFFFF;stroke:#000000;stroke-width:1.0491;stroke-miterlimit:10;}
	.st120{fill:#FFFFFF;stroke:#000000;stroke-width:0.9557;stroke-miterlimit:10;}
	.st121{fill:#FFFFFF;stroke:#000000;stroke-width:1.0789;stroke-miterlimit:10;}
	.st122{fill:#FFFFFF;stroke:#000000;stroke-width:1.0528;stroke-miterlimit:10;}
	.st123{fill:#FFFFFF;stroke:#000000;stroke-width:0.9393;stroke-miterlimit:10;}
	.st124{fill:#FFFFFF;stroke:#000000;stroke-width:1.1026;stroke-miterlimit:10;}
	.st125{fill:#FFFFFF;stroke:#000000;stroke-width:1.0494;stroke-miterlimit:10;}
	.st126{fill:#FFFFFF;stroke:#000000;stroke-width:0.9872;stroke-miterlimit:10;}
	.st127{fill:#FFFFFF;stroke:#000000;stroke-width:1.1032;stroke-miterlimit:10;}
	.st128{fill:#FFFFFF;stroke:#000000;stroke-width:0.9766;stroke-miterlimit:10;}
	.st129{fill:#FFFFFF;stroke:#000000;stroke-width:1.0436;stroke-miterlimit:10;}
	.st130{fill:#FFFFFF;stroke:#000000;stroke-width:0.9978;stroke-miterlimit:10;}
	.st131{fill:#FFFFFF;stroke:#000000;stroke-width:1.0869;stroke-miterlimit:10;}
	.st132{fill:#FFFFFF;stroke:#000000;stroke-width:1.0863;stroke-miterlimit:10;}
	.st133{fill:#FFFFFF;stroke:#000000;stroke-width:1.1062;stroke-miterlimit:10;}
	.st134{fill:#FFFFFF;stroke:#000000;stroke-width:1.1308;stroke-miterlimit:10;}
	.st135{fill:#FFFFFF;stroke:#000000;stroke-width:1.0735;stroke-miterlimit:10;}
	.st136{fill:#FFFFFF;stroke:#000000;stroke-width:0.9643;stroke-miterlimit:10;}
	.st137{fill:#FFFFFF;stroke:#000000;stroke-width:1.0075;stroke-miterlimit:10;}
	.st138{fill:#FFFFFF;stroke:#000000;stroke-width:1.0608;stroke-miterlimit:10;}
	.st139{fill:#FFFFFF;stroke:#000000;stroke-width:1.0312;stroke-miterlimit:10;}
	.st140{fill:#FFFFFF;stroke:#000000;stroke-width:1.05;stroke-miterlimit:10;}
	.st141{fill:#FFFFFF;stroke:#000000;stroke-width:1.026;stroke-miterlimit:10;}
	.st142{fill:#FFFFFF;stroke:#000000;stroke-width:0.9922;stroke-miterlimit:10;}
	.st143{fill:#FFFFFF;stroke:#000000;stroke-width:0.9354;stroke-miterlimit:10;}
	.st144{fill:#FFFFFF;stroke:#000000;stroke-width:1.03;stroke-miterlimit:10;}
	.st145{fill:#FFFFFF;stroke:#000000;stroke-width:1.0694;stroke-miterlimit:10;}
</style>
<g>
	<g>
		<polygon class="st0" points="969.3,124.2 959.4,119.1 949.7,124.6 951.4,113.3 943.3,105.4 954.2,103.6 958.9,93.2 963.9,103.4 
			974.9,104.8 967.2,112.9 		"/>
	</g>
	<g>
		<polygon class="st1" points="916,73.6 907.2,66.9 896.8,70.6 900.4,59.8 893.8,50.8 904.8,50.8 911.1,41.5 914.4,52.3 924.8,55.6 
			915.9,62.2 		"/>
	</g>
	<g>
		<polygon class="st2" points="838.7,84.7 847.9,86.4 854.2,79.6 855.7,89 864.1,93.3 855.8,97.5 854.6,106.9 848.1,100 839,101.6 
			843.2,93.2 		"/>
	</g>
	<g>
		<polygon class="st3" points="857.8,138.9 859.4,149.8 869.5,154.5 859.3,159.7 857.7,170.8 849.8,163.1 838.7,165.3 844,155.3 
			838.8,145.6 849.9,147.1 		"/>
	</g>
	<g>
		<polygon class="st4" points="859.4,213 866.8,218.5 875.4,215.3 872.6,224.3 878.1,231.7 869,231.8 863.9,239.6 861,230.7 
			852.3,228.1 859.7,222.4 		"/>
	</g>
	<g>
		<polygon class="st5" points="804.2,216.2 814.1,217.4 820.5,209.8 822.6,219.8 831.7,223.9 823.2,228.8 822.5,238.9 815.1,231.9 
			805.5,234.1 809.4,224.9 		"/>
	</g>
	<g>
		<polygon class="st6" points="681,138.2 671.6,139.1 667.3,147.4 663.3,138.6 653.9,136.8 660.8,130.4 659.4,120.9 667.7,125.8 
			676.1,121.8 674.4,131.2 		"/>
	</g>
	<g>
		<polygon class="st7" points="765.1,272.6 774.9,276.2 783.2,270 783,280.7 791.5,287 781.6,290 778.4,300.2 772.5,291.3 
			762.1,291.3 768.4,282.8 		"/>
	</g>
	<g>
		<polygon class="st8" points="779.2,310.2 785.5,318.3 795.7,317.4 790,326.3 793.8,335.9 783.9,333.3 776,340.2 775.6,329.7 
			767,324.3 776.6,320.4 		"/>
	</g>
	<g>
		<polygon class="st9" points="769.5,345.8 766.6,354.8 772.6,362.2 762.8,362.4 757.3,370.3 754.2,361.4 744.8,358.8 752.7,353.1 
			752.4,343.7 760.3,349.1 		"/>
	</g>
	<g>
		<polygon class="st10" points="625.8,287.4 614.9,285.4 607.3,293.6 605.5,282.3 595.5,277.2 605.4,272.2 606.8,261 614.6,269.1 
			625.5,267.3 620.5,277.3 		"/>
	</g>
	<g>
		<polygon class="st11" points="514.1,277 517.3,268 511.5,260.5 521.3,260.5 527,252.7 529.8,261.8 539.2,264.5 531.2,270 
			531.2,279.5 523.4,273.9 		"/>
	</g>
	<g>
		<polygon class="st12" points="718.3,419.3 711.7,425.7 713.5,434.8 705,430.6 696.7,434.9 698.1,425.8 691.2,419.4 700.5,418 
			704.5,409.8 708.9,418 		"/>
	</g>
	<g>
		<polygon class="st13" points="599.1,375.7 602.5,385.3 612.4,387.7 604.2,394.2 604.7,404.5 596.3,398.9 586.7,402.9 589.6,393 
			583.2,385.1 593.5,384.5 		"/>
	</g>
	<g>
		<polygon class="st14" points="556,390.7 552.5,399.9 558.3,407.8 548.2,407.5 542.2,415.3 539.4,406 529.9,402.9 538.3,397.4 
			538.5,387.7 546.4,393.7 		"/>
	</g>
	<g>
		<polygon class="st15" points="445.1,392 451.4,384.4 448.4,375 457.9,378.6 466.2,373 465.8,382.8 473.9,388.8 464.2,391.3 
			460.9,400.6 455.3,392.3 		"/>
	</g>
	<g>
		<polygon class="st16" points="522.1,484 520.4,473.9 511,469.9 520.2,464.8 521.5,454.5 528.9,461.5 539.1,459.3 534.5,468.6 
			539.5,477.5 529.2,476.3 		"/>
	</g>
	<g>
		<polygon class="st17" points="591.2,531.6 592.5,542.3 602.1,547 592.2,551.8 590.4,562.5 583,554.8 572.2,556.7 577.5,547.1 
			572.7,537.6 583.4,539.4 		"/>
	</g>
	<g>
		<polygon class="st18" points="599.2,590.6 592,596.8 593.2,606.2 584.8,601.2 576,605.1 578.1,595.9 571.4,588.8 581.1,588.1 
			585.7,579.9 589.7,588.6 		"/>
	</g>
	<g>
		<polygon class="st19" points="387.8,522.6 389.4,511.8 381.2,504.5 392.3,502.4 397.1,492.4 402.3,502 413.4,503.1 405.5,511.1 
			407.7,521.8 397.6,517.1 		"/>
	</g>
	<g>
		<polygon class="st20" points="381.6,532.9 388.2,540.6 398.2,539.3 392.9,548.3 397,557.6 387.2,555.4 379.7,562.5 378.9,552.2 
			370.2,547.3 379.5,543.1 		"/>
	</g>
	<g>
		<polygon class="st21" points="452.1,617.9 453.2,628.7 462.9,633.7 452.8,638.4 450.7,649.2 443.3,641.2 432.4,642.9 437.9,633.3 
			433.2,623.6 444.1,625.6 		"/>
	</g>
	<g>
		<polygon class="st22" points="476.5,701.2 465.9,702.4 461.2,711.8 456.5,702 446,700 453.7,692.8 451.9,682.2 461.3,687.5 
			470.8,682.9 468.9,693.4 		"/>
	</g>
	<g>
		<polygon class="st16" points="366.6,692.2 369.9,682.5 363.5,674.5 374,674.4 380,666 383.2,675.6 393.3,678.4 384.8,684.5 
			385,694.6 376.5,688.7 		"/>
	</g>
	<g>
		<polygon class="st23" points="359.8,723.9 368.4,717.4 367.5,706.6 376.8,712.7 386.9,708.9 384.1,719.2 391.2,727.6 380.2,727.9 
			374.5,736.9 370.5,726.7 		"/>
	</g>
	<g>
		<polygon class="st24" points="331.2,713 322,719.5 322.5,730.7 313.1,724 302.3,727.7 305.7,717 298.6,708 310,708.2 316.4,699 
			320.1,709.7 		"/>
	</g>
	<g>
		<polygon class="st25" points="239.1,677 247.1,682.7 256.3,679.1 253.4,688.8 259.5,696.7 249.7,696.9 244.3,705.4 241.1,695.9 
			231.7,693.2 239.5,687.1 		"/>
	</g>
	<g>
		<polygon class="st26" points="246.1,745.4 255.7,743.9 259.7,735.1 264.4,743.9 274.1,745.3 267.3,752.2 269.3,761.9 260.5,757.3 
			252.1,762 253.4,752.2 		"/>
	</g>
	<g>
		<polygon class="st27" points="335.1,870 325,866.6 316.7,873.2 316.6,862.3 307.9,856.1 317.9,852.7 320.8,842.3 327.1,851.2 
			337.6,850.9 331.5,859.7 		"/>
	</g>
	<g>
		<polygon class="st28" points="235.9,809.6 240.5,817.9 250,818.6 243.5,825.8 245.6,835.2 236.9,831.4 228.7,836.5 229.9,826.9 
			222.8,820.7 232.1,818.6 		"/>
	</g>
	<g>
		<polygon class="st29" points="226.9,857 233.5,864.2 243.1,862.6 238.3,871.4 242.6,880.3 233.1,878.6 226.1,885.7 224.9,875.8 
			216.3,871.3 225.2,866.9 		"/>
	</g>
	<g>
		<polygon class="st30" points="162.8,852.4 172.8,857.5 182.4,851.8 180.9,863.2 189.1,871 178.1,873 173.5,883.4 168.3,873.3 
			157.3,871.9 165,863.7 		"/>
	</g>
	<g>
		<polygon class="st31" points="204.1,935.6 196.4,941.7 197.4,951.5 188.9,946.1 179.6,949.9 182,940.4 175.3,932.9 185.4,932.4 
			190.5,924 194.3,933.2 		"/>
	</g>
	<g>
		<polygon class="st32" points="156.4,950.4 147.1,950.8 142.4,958.7 139,949.9 129.9,947.5 137,941.7 136.2,932.3 144,937.6 
			152.5,934.1 150.3,943.2 		"/>
	</g>
	<g>
		<polygon class="st33" points="138.8,993.5 127.8,991.2 119.8,999.1 118.4,987.7 108.4,982.2 118.6,977.5 120.4,966.1 128,974.7 
			139.1,973.1 133.7,983.2 		"/>
	</g>
</g>
<g>
	<g>
		<polygon class="st34" points="939,166.2 939.5,155.5 930.7,149.3 941.2,146.2 944.7,136 950.8,144.7 961.7,144.5 954.9,153.1 
			958.2,163.2 947.9,159.8 		"/>
	</g>
	<g>
		<polygon class="st35" points="869.3,286.8 880,288.6 887.3,280.6 889.1,291.6 899,296.4 889.4,301.4 888.1,312.4 880.4,304.5 
			869.8,306.5 874.5,296.6 		"/>
	</g>
	<g>
		<polygon class="st36" points="969.9,437 961.1,431.3 951.6,435.6 954.2,425.2 947.4,417.2 957.7,416.5 963,407.3 966.8,417.2 
			976.9,419.5 968.9,426.3 		"/>
	</g>
	<g>
		<polygon class="st37" points="915.6,439.7 907.1,434.4 898,438.7 900.3,428.7 893.6,421.1 903.4,420.2 908.3,411.2 912.2,420.7 
			921.9,422.7 914.4,429.5 		"/>
	</g>
	<g>
		<polygon class="st38" points="855.2,440.1 864.9,437.9 868.4,428.5 873.8,437.3 883.9,438 877.5,445.6 880.2,455.4 870.9,451.4 
			862.5,456.7 863.1,446.6 		"/>
	</g>
	<g>
		<polygon class="st39" points="898.6,493.4 904.3,501.7 914.4,501.4 908.3,509.7 911.4,519.4 901.9,516.3 893.8,522.5 894,512.3 
			885.9,506.5 895.5,503.3 		"/>
	</g>
	<g>
		<polygon class="st40" points="946.9,570.5 954.1,577.2 963.6,574.8 959.5,584.1 964.6,592.7 954.8,591.7 948.4,599.4 946.5,589.5 
			937.4,585.7 946,580.6 		"/>
	</g>
	<g>
		<polygon class="st41" points="750.8,472.5 759.6,476.7 767.9,471.7 766.7,481.6 773.9,488.3 764.4,490.2 760.5,499.3 755.9,490.5 
			746.3,489.5 752.9,482.2 		"/>
	</g>
	<g>
		<polygon class="st42" points="913.8,645.9 907.3,637.7 896.9,638.7 902.7,629.7 898.8,619.9 908.8,622.5 916.8,615.5 917.2,626.1 
			926,631.5 916.3,635.5 		"/>
	</g>
	<g>
		<polygon class="st43" points="808,629 812.5,620.6 807.8,612.3 817.5,613.8 824.2,606.9 825.7,616.2 834.5,620.3 825.8,624.6 
			824.5,633.9 817.6,627.3 		"/>
	</g>
	<g>
		<polygon class="st44" points="781.5,628.2 786.1,636.6 795.6,637.2 789.1,644.5 791.1,654 782.4,650.1 774.1,655.3 775.3,645.6 
			768.2,639.4 777.6,637.2 		"/>
	</g>
	<g>
		<polygon class="st45" points="838.2,700.2 845.9,707.3 856.1,704.6 851.8,714.5 857.2,723.6 846.9,722.6 840.1,730.8 837.9,720.4 
			828.3,716.4 837.4,710.9 		"/>
	</g>
	<g>
		<polygon class="st46" points="856.4,770.7 848.5,775.6 848.3,785 840.8,778.9 831.7,781.3 835.1,772.7 829.6,764.8 839.1,765.5 
			844.9,758.2 847.4,767.3 		"/>
	</g>
	<g>
		<polygon class="st47" points="706.9,710.7 702.4,720.7 708.3,729.9 697.1,728.8 689.9,737.1 687.5,726.6 677.1,722.5 686.8,717 
			687.6,706.2 696,713.4 		"/>
	</g>
	<g>
		<polygon class="st48" points="690.8,747.4 694.4,757.9 705.2,760.6 696.2,767.7 696.7,778.9 687.5,772.8 676.9,777.1 680.3,766.2 
			673.3,757.6 684.5,757 		"/>
	</g>
	<g>
		<polygon class="st49" points="748,872.7 746.3,882.6 753.7,889.5 743.5,891.1 738.9,900.2 734.3,891.3 724.1,890 731.5,882.9 
			729.8,873.1 738.9,877.5 		"/>
	</g>
	<g>
		<polygon class="st50" points="645.7,815.6 651.3,823.1 660.7,822.5 655.3,830.5 658.6,839.5 649.6,836.9 642.1,843.1 642,833.4 
			634.2,828.3 643.1,824.9 		"/>
	</g>
	<g>
		<polygon class="st51" points="628.5,904 629,893.9 620.8,888 630.7,885.1 634.1,875.5 639.8,883.8 650,883.8 643.6,891.8 
			646.5,901.3 636.9,898 		"/>
	</g>
	<g>
		<polygon class="st52" points="568.3,862.2 566.4,852.8 557.4,849.3 565.9,844.3 566.7,834.6 573.9,840.9 583.4,838.4 579.4,847.3 
			584.4,855.5 574.7,854.7 		"/>
	</g>
	<g>
		<polygon class="st53" points="567.6,885.4 565.5,894.4 571.9,901 562.5,902 557.9,910.1 554.2,901.7 544.9,900.1 552,893.9 
			550.9,884.8 559,889.4 		"/>
	</g>
	<g>
		<polygon class="st54" points="542.3,971.3 550.4,964.6 549.2,954.1 558.4,959.7 568.2,955.6 565.8,965.8 573.1,973.7 562.4,974.3 
			557.1,983.4 552.9,973.6 		"/>
	</g>
	<g>
		<polygon class="st55" points="515.8,939.9 517.1,949.6 526,953.8 516.9,958.4 515.3,968.1 508.5,961.2 498.6,963 503.4,954.2 
			498.9,945.5 508.7,947 		"/>
	</g>
	<g>
		<polygon class="st56" points="406.3,855.1 409.6,844.5 402.6,836 414,835.7 420.3,826.4 424,836.8 435,839.6 425.8,846.4 
			426.3,857.4 417,851.2 		"/>
	</g>
	<g>
		<polygon class="st57" points="409.1,929.9 407.6,920.3 398.7,916.3 407.6,911.6 409,901.8 415.9,908.6 425.7,906.6 421.1,915.4 
			425.8,923.9 416,922.6 		"/>
	</g>
	<g>
		<polygon class="st58" points="374.7,971.9 385.3,970.4 389.7,960.7 394.7,970.4 405.4,971.9 398,979.5 400.2,990.2 390.5,985.1 
			381.2,990.2 382.6,979.5 		"/>
	</g>
</g>
<g>
	<polygon class="st59" points="610.3,779.9 608.3,789.1 614.9,795.8 605.3,796.9 600.6,805.2 596.7,796.7 587.2,795.1 594.4,788.7 
		593.2,779.4 601.6,784 	"/>
</g>
<g>
	<g>
		<polygon class="st60" points="596.5,644.6 598.1,655.5 608.1,660 598.2,665.2 596.6,676.2 588.8,668.6 577.8,670.9 583,660.9 
			577.8,651.4 588.7,652.8 		"/>
	</g>
	<g>
		<polygon class="st61" points="616.1,621.7 608.2,628.3 609.6,638.6 600.4,633.2 590.9,637.3 593.1,627.3 585.9,619.7 596.4,618.9 
			601.5,610 605.8,619.5 		"/>
	</g>
	<g>
		<polygon class="st62" points="730.1,681.5 720.2,682 715.2,690.6 711.4,681.2 701.6,678.7 709.2,672.4 708.2,662.3 716.7,667.9 
			725.8,664 723.5,673.8 		"/>
	</g>
	<g>
		<polygon class="st49" points="756.6,652.2 765.9,656 774.1,650.3 773.6,660.6 781.5,667 771.8,669.6 768.4,679.3 763,670.5 
			753,670.1 759.4,662.2 		"/>
	</g>
	<g>
		<polygon class="st13" points="715.2,560 716.1,570.1 725.1,574.9 715.6,579.2 713.5,589.3 706.7,581.8 696.4,583.2 701.8,574.3 
			697.5,565.1 707.6,567.1 		"/>
	</g>
</g>
<g>
	<g>
		<polygon class="st63" points="451.7,808.3 461.5,810.9 469,804 469.8,814.4 478.5,819.8 469.2,823.6 467.1,833.8 460.5,825.7 
			450.5,826.6 455.8,817.9 		"/>
	</g>
	<g>
		<polygon class="st64" points="417,793.9 423.5,787.1 421.4,778 430.1,782 438.3,777.4 437.2,786.6 444.5,792.9 435,794.6 
			431.3,803 426.6,794.9 		"/>
	</g>
</g>
<g>
	<polygon class="st65" points="508.4,762.7 511.2,754 505.4,747 514.8,746.8 520,739.2 523,747.7 532,750.1 524.5,755.6 
		524.8,764.6 517.2,759.5 	"/>
</g>
<g>
	<g>
		<polygon class="st66" points="965.9,846.5 962.3,836.7 952.1,834.4 960.3,827.6 959.7,817.1 968.4,822.7 978.2,818.4 975.3,828.7 
			982,836.6 971.5,837.4 		"/>
	</g>
	<g>
		<polygon class="st67" points="876,832.3 882.6,840.1 892.7,838.9 887.3,847.9 891.4,857.4 881.5,855.1 873.8,862.3 873.1,851.8 
			864.3,846.8 873.8,842.6 		"/>
	</g>
	<g>
		<polygon class="st68" points="979.1,913.2 978.7,903.9 970.7,899.2 979.6,895.7 981.9,886.6 987.8,893.7 997.2,892.8 992,900.7 
			995.5,909.3 986.4,907 		"/>
	</g>
	<g>
		<polygon class="st69" points="916.7,912.2 926.7,907.8 928.4,897 936,905.2 946.9,903.8 941.7,913.3 946.7,923.2 935.9,920.9 
			928.1,928.4 926.6,917.5 		"/>
	</g>
	<g>
		<polygon class="st6" points="861.7,876.4 869.8,881.2 878.2,877.1 876.2,886.6 882.6,893.6 873.3,894.6 868.8,903.1 865.1,894.2 
			855.9,892.4 862.9,886 		"/>
	</g>
	<g>
		<polygon class="st51" points="898,979.7 904.4,971.9 901.2,962.3 911,965.8 919.3,960.1 919,970.1 927.4,976.1 917.4,978.8 
			914.2,988.2 908.4,979.9 		"/>
	</g>
</g>
<g>
	<g>
		<polygon class="st70" points="720.7,911.9 731,912.1 736.8,903.6 740,913.7 749.9,917 741.6,923 741.9,933.5 733.5,927.1 
			723.8,930.3 727,920.4 		"/>
	</g>
	<g>
		<polygon class="st71" points="704.7,956 694.2,952.4 685.6,959.3 685.5,948 676.4,941.5 686.8,938.1 689.8,927.2 696.4,936.4 
			707.3,936.2 700.9,945.3 		"/>
	</g>
</g>
<g>
	<g>
		<polygon class="st72" points="773.6,983.4 772.2,993.8 780.2,1000.5 769.7,1002.7 765.4,1012.3 760.3,1003.3 749.7,1002.5 
			757,994.8 754.7,984.7 764.4,988.9 		"/>
	</g>
	<g>
		<polygon class="st73" points="744.9,930.7 752.7,935.8 761.2,932.1 758.9,941.3 764.9,948.5 755.7,949.2 750.9,957.4 747.6,948.5 
			738.6,946.4 745.7,940.3 		"/>
	</g>
</g>
<g>
	<g>
		<polygon class="st74" points="1020.7,768.4 1012.5,774.1 1012.9,784.1 1004.5,778.1 995,781.4 998,771.9 991.6,763.9 1001.9,764 
			1007.5,755.8 1010.8,765.4 		"/>
	</g>
	<g>
		<polygon class="st75" points="914.3,661.9 910.6,671.1 916.3,679.2 906.1,678.7 899.9,686.4 897.3,677 887.8,673.7 896.3,668.3 
			896.7,658.5 904.5,664.7 		"/>
	</g>
	<g>
		<polygon class="st76" points="989.2,684.3 981.2,692.2 983.5,703.2 973.1,698.1 963.1,703.4 964.7,692.4 956.2,684.7 967.6,682.9 
			972.3,672.9 977.8,682.8 		"/>
	</g>
</g>
<g>
	<g>
		<polygon class="st77" points="102.5,850.2 108.3,859.6 119.3,859.8 112.1,868.6 115,879.3 104.8,875.4 95.6,881.8 96.4,870.6 
			87.9,863.8 98.6,860.8 		"/>
	</g>
	<g>
		<polygon class="st78" points="133.4,821.5 123.5,824.1 120.3,833.9 114.4,825.1 104,824.7 110.3,816.7 107.1,806.7 116.9,810.5 
			125.3,804.7 125,815.1 		"/>
	</g>
	<g>
		<polygon class="st79" points="52.8,754.6 62.7,758.9 71.7,752.8 71,763.9 79.4,770.9 69,773.6 65.2,784 59.5,774.5 48.7,773.9 
			55.6,765.4 		"/>
	</g>
	<g>
		<polygon class="st80" points="18.7,682.5 28.3,678 29.8,667.6 37.4,675.4 47.9,673.8 43,683.1 48.1,692.6 37.5,690.6 30.1,698 
			28.4,687.5 		"/>
	</g>
	<g>
		<polygon class="st81" points="134.7,726.1 142.6,731.5 151.5,727.8 148.9,737.3 154.9,744.9 145.4,745.3 140.3,753.7 137,744.4 
			127.8,742.1 135.3,735.9 		"/>
	</g>
	<g>
		<polygon class="st82" points="166.3,709.6 175,712.4 182.1,706.6 182.2,716 189.8,721.2 181.2,724.2 178.8,733.2 173.4,725.7 
			164.3,726 169.5,718.4 		"/>
	</g>
	<g>
		<polygon class="st83" points="110.3,650.2 104.4,641 93.4,641 100.4,632.1 97.3,621.5 107.5,625.2 116.5,618.7 115.9,629.8 
			124.6,636.4 114,639.6 		"/>
	</g>
	<g>
		<polygon class="st84" points="39.7,514.1 40.3,524 48.9,528.9 39.5,532.8 37.1,542.5 30.8,535 20.7,536.1 26.2,527.6 22.4,518.6 
			32.1,520.8 		"/>
	</g>
	<g>
		<polygon class="st85" points="120.8,528.7 115.4,537.1 119.6,546.3 109.5,543.9 101.8,550.5 101,540.6 92.1,535.5 101.7,531.7 
			103.8,522 110.5,529.6 		"/>
	</g>
	<g>
		<polygon class="st86" points="106.8,471.8 106,481.8 113.9,487.9 103.9,490.5 100.2,499.9 94.9,491.5 84.6,491.1 91.3,483.4 
			88.7,473.8 98.2,477.4 		"/>
	</g>
	<g>
		<polygon class="st87" points="242.9,552.7 252.7,547.4 253.6,536.3 262.1,544 273.1,541.7 268.5,551.8 274.5,561.5 263.2,560 
			255.8,568.3 253.4,557.3 		"/>
	</g>
	<g>
		<polygon class="st88" points="141.4,425 131.9,430.7 131.6,441.8 122.9,434.5 112,437.3 116.1,427 109.8,417.7 121,418.6 
			127.9,410.1 130.8,420.9 		"/>
	</g>
	<g>
		<polygon class="st89" points="238.3,456.9 229,454.4 221.8,460.9 221.1,451 212.8,445.9 221.7,442.3 223.7,432.7 229.9,440.3 
			239.4,439.5 234.4,447.8 		"/>
	</g>
	<g>
		<polygon class="st90" points="267.7,420.2 257.7,422.3 254,431.8 248.7,422.8 238.5,421.8 245.1,414.2 242.5,404.2 252,408.5 
			260.6,403.2 259.8,413.4 		"/>
	</g>
	<g>
		<polygon class="st91" points="184.7,323.8 195,322.5 199.5,313.1 204.3,322.7 214.6,324.4 207.2,331.6 209.2,342 199.9,336.9 
			190.7,341.7 192.3,331.3 		"/>
	</g>
	<g>
		<polygon class="st92" points="213.4,282.1 203.5,285.9 201.4,296.3 194.3,288 183.6,288.9 189.1,279.9 184.6,270 195.1,272.7 
			203,265.8 204,276.5 		"/>
	</g>
	<g>
		<polygon class="st93" points="276.7,273.1 284.3,278.3 292.8,274.7 290.3,283.9 296.2,291.2 287,291.6 282.1,299.7 278.9,290.8 
			270,288.5 277.2,282.6 		"/>
	</g>
	<g>
		<polygon class="st94" points="352.6,273.9 354,284.3 363.4,288.8 353.8,293.6 352,304.1 344.8,296.6 334.2,298.5 339.4,289.2 
			334.6,279.9 345.1,281.6 		"/>
	</g>
	<g>
		<polygon class="st95" points="404.9,267.4 410.3,277.1 421.4,277.9 413.8,286.4 416.2,297.3 406.1,292.8 396.5,298.9 397.9,287.6 
			389.6,280.4 400.5,277.9 		"/>
	</g>
	<g>
		<polygon class="st96" points="351.7,192.4 343.1,196.3 341.7,205.5 335.1,198.5 325.7,199.7 330.2,191.6 325.8,183.1 335.2,185 
			341.9,178.6 343.2,187.9 		"/>
	</g>
	<g>
		<polygon class="st97" points="416.4,195.8 416.2,206.7 425.2,212.9 414.5,216.3 411.1,226.9 404.7,218.1 393.6,218.4 400.3,209.5 
			396.8,199.2 407.4,202.5 		"/>
	</g>
	<g>
		<polygon class="st36" points="349,106.4 338.7,107.6 334,116.9 329.5,107.2 319.1,105.3 326.7,98.2 324.9,87.7 334.2,93 
			343.4,88.4 341.6,98.8 		"/>
	</g>
	<g>
		<polygon class="st98" points="448.5,127.7 443.9,137 449.3,145.9 438.7,144.6 431.6,152.3 429.7,142.2 419.9,138.1 429.3,133.1 
			430.3,122.9 438.1,129.9 		"/>
	</g>
	<g>
		<polygon class="st99" points="396.1,30 398.7,39.4 408.1,42.2 399.9,48 399.7,57.8 392,52 382.6,55.2 386,45.9 380.3,38 
			390.2,38.1 		"/>
	</g>
	<g>
		<polygon class="st100" points="547.4,138 543,147.2 548.4,155.8 538,154.7 531.1,162.3 529,152.4 519.4,148.4 528.6,143.5 
			529.5,133.4 537.2,140.2 		"/>
	</g>
	<g>
		<polygon class="st101" points="613.9,138.6 612.4,127.6 602.3,122.9 612.5,117.7 614.2,106.6 622,114.5 633.2,112.3 627.8,122.3 
			633,132.1 621.8,130.5 		"/>
	</g>
	<g>
		<polygon class="st102" points="606.6,33 614.8,27.1 614.3,16.9 622.9,22.9 632.6,19.6 629.6,29.3 636.1,37.3 625.7,37.3 620,45.6 
			616.6,36 		"/>
	</g>
</g>
<g>
	<g>
		<polygon class="st103" points="377.2,430.2 370.6,438.5 373.9,448.5 363.7,444.9 354.9,451 355.1,440.5 346.3,434.2 356.8,431.3 
			360.1,421.3 366.3,430 		"/>
	</g>
	<g>
		<polygon class="st104" points="453.6,475.6 449.3,465.7 438.6,464 446.8,456.5 445.4,445.7 454.8,450.9 464.6,446 462.3,456.7 
			469.6,464.4 458.9,465.9 		"/>
	</g>
	<g>
		<polygon class="st105" points="382,343.6 384.1,352.8 393,356 384.8,361.1 384.3,370.6 377.1,364.7 367.8,367.4 371.5,358.5 
			366.4,350.7 375.9,351.2 		"/>
	</g>
</g>
<g>
	<g>
		<polygon class="st106" points="22.1,459.3 26,467.7 35.1,469 28.3,475.6 29.6,484.9 21.5,480.5 13.2,485 15,475.7 8.5,469.2 
			17.8,467.8 		"/>
	</g>
	<g>
		<polygon class="st107" points="64.5,423.7 58.8,414.3 47.9,414 55.1,405.3 52.3,394.6 62.4,398.6 71.7,392.3 70.7,403.5 
			79.2,410.3 68.5,413.2 		"/>
	</g>
	<g>
		<polygon class="st108" points="149.7,240 151.4,229.6 143.7,222.6 154.3,220.8 159,211.3 163.8,220.5 174.5,221.7 166.8,229.2 
			168.7,239.5 159.2,234.9 		"/>
	</g>
	<g>
		<polygon class="st109" points="169.9,169.7 176.7,177.6 187,176.2 181.6,185.4 185.9,195.1 175.8,192.9 168.1,200.3 167.2,189.6 
			158.2,184.6 167.8,180.2 		"/>
	</g>
	<g>
		<polygon class="st110" points="167.9,144.8 160.3,139.4 151.7,142.9 154.3,133.7 148.6,126.4 157.8,126.1 162.8,118 165.8,127 
			174.7,129.4 167.4,135.3 		"/>
	</g>
	<g>
		<polygon class="st111" points="281.4,157.3 279.4,168.3 287.5,176 276.1,177.7 271,187.7 266,177.8 254.7,176.3 263,168.5 
			261.1,157.6 271.2,162.6 		"/>
	</g>
	<g>
		<polygon class="st112" points="237.3,34.8 227.7,38.3 225.4,48.3 218.8,40.2 208.5,40.8 214,32.2 209.8,22.6 219.9,25.5 
			227.7,18.9 228.4,29.2 		"/>
	</g>
	<g>
		<polygon class="st113" points="276.2,78.4 267.8,72.6 258.4,76.5 261.2,66.3 254.8,58.2 264.9,57.8 270.4,48.9 273.9,58.8 
			283.7,61.4 275.7,67.9 		"/>
	</g>
</g>
<g>
	<g>
		<polygon class="st114" points="145.8,294.5 151.6,302.2 161.3,301.4 155.8,309.7 159.3,318.8 150,316.3 142.5,322.7 142.2,312.8 
			134.2,307.6 143.3,304.1 		"/>
	</g>
	<g>
		<polygon class="st115" points="177.2,268.2 172.3,276.5 176.6,285.1 166.9,283.1 159.8,289.7 158.7,280.2 150,275.7 159,271.8 
			160.8,262.4 167.4,269.5 		"/>
	</g>
	<g>
		<polygon class="st116" points="59.1,221.9 57,232.5 64.7,240 53.7,241.5 48.6,251.1 44,241.5 33.1,239.9 41.1,232.4 39.5,221.8 
			49.2,226.9 		"/>
	</g>
	<g>
		<polygon class="st117" points="74.4,183.2 66,176.9 56.1,180.6 59.4,170.2 53,161.7 63.5,161.6 69.4,152.6 72.6,162.9 82.7,165.9 
			74.2,172.3 		"/>
	</g>
</g>
<g>
	<polygon class="st67" points="78.9,222.3 79.2,232.5 88,237.8 78.1,241.6 75.4,251.6 69.1,243.6 58.6,244.5 64.5,235.8 60.8,226.4 
		70.8,229 	"/>
</g>
<g>
	<g>
		<polygon class="st118" points="114.7,319 106.3,312 95.8,315.2 99.9,304.7 93.8,295.4 104.7,296 111.4,287.1 114.1,297.9 
			124.3,301.7 115.1,307.8 		"/>
	</g>
	<g>
		<polygon class="st119" points="61.8,318.8 62.2,308.6 53.8,302.7 63.9,299.6 67.3,289.8 73.1,298.2 83.6,298 77.1,306.2 80.2,316 
			70.4,312.7 		"/>
	</g>
</g>
<g>
	<g>
		<polygon class="st120" points="46,63.2 53.7,57.9 53.4,48.5 61.1,54.2 70.1,51.3 67.2,60.1 73.1,67.6 63.5,67.4 58.2,75 
			55.2,66.1 		"/>
	</g>
	<g>
		<polygon class="st121" points="47.3,39.2 36.8,38.6 30.5,47.1 27.6,36.7 17.6,33 26.3,27.2 26.3,16.4 34.6,23.2 44.7,20.2 
			41.1,30.3 		"/>
	</g>
</g>
<g>
	<g>
		<polygon class="st122" points="109.2,134 104.3,143.1 109.2,152.1 98.8,150.4 91.4,157.7 89.8,147.6 80.4,143 89.9,138.5 
			91.4,128.4 98.8,135.7 		"/>
	</g>
	<g>
		<polygon class="st123" points="133.8,110.9 134,120 141.8,124.8 133,128.2 130.5,137.1 124.9,130 115.5,130.7 120.8,123 
			117.5,114.5 126.5,116.8 		"/>
	</g>
	<g>
		<polygon class="st124" points="41.1,102 31.6,107 30.6,117.8 22.5,110.2 11.8,112.3 16.4,102.6 10.7,93.2 21.6,94.7 28.8,86.8 
			31,97.5 		"/>
	</g>
	<g>
		<polygon class="st125" points="186,56 195,60.9 204,56 202.3,66.4 209.7,73.7 199.6,75.3 195.1,84.8 190.6,75.3 180.5,73.8 
			187.7,66.4 		"/>
	</g>
</g>
<g>
	<g>
		<polygon class="st126" points="687.5,72.7 693.3,80.4 703,79.6 697.5,87.9 701,97 691.7,94.4 684.2,100.9 684,91 675.9,85.8 
			685,82.3 		"/>
	</g>
	<g>
		<polygon class="st127" points="643.1,54 646.8,43.9 640.3,35.3 651.4,35.4 657.9,26.7 661.1,36.9 671.6,40.1 662.5,46.3 662.5,57 
			653.7,50.6 		"/>
	</g>
	<g>
		<polygon class="st128" points="713.1,43 709.6,34.1 700.2,32.3 707.6,25.9 706.7,16.3 714.8,21.1 723.7,17 721.3,26.5 727.6,33.6 
			718,34.5 		"/>
	</g>
</g>
<g>
	<g>
		<polygon class="st129" points="665.8,257.6 671.8,265.9 682,265.4 675.9,273.9 679.3,283.7 669.6,280.7 661.4,287.2 661.5,276.8 
			653.1,271 662.9,267.6 		"/>
	</g>
	<g>
		<polygon class="st130" points="612,208.1 619.4,201.8 618.1,192.1 626.8,197.1 635.8,193.1 633.7,202.6 640.7,209.8 630.7,210.6 
			626,219.1 621.9,210.1 		"/>
	</g>
	<g>
		<polygon class="st131" points="771.1,236.7 781.8,236.5 787.4,227.4 791.2,237.7 801.5,240.6 793.2,247.1 794,257.9 785.1,251.7 
			775.2,255.5 778,245.2 		"/>
	</g>
</g>
<g>
	<g>
		<polygon class="st132" points="740.5,195.9 747.3,204 757.9,202.6 752.3,212 756.6,221.9 746.3,219.6 738.4,227 737.6,216.2 
			728.4,211 738.2,206.6 		"/>
	</g>
	<g>
		<polygon class="st133" points="808.9,189 802.1,197.4 805.5,207.7 795.1,203.9 786,210.1 786.4,199.4 777.4,192.9 788.1,190 
			791.5,179.9 797.8,188.8 		"/>
	</g>
</g>
<g>
	<g>
		<polygon class="st134" points="775.4,96.6 765.9,102.4 765.6,113.4 756.9,106.2 746.1,109 750.1,98.8 743.7,89.5 755,90.4 
			761.8,81.8 764.8,92.6 		"/>
	</g>
	<g>
		<polygon class="st135" points="714.7,71.4 717.1,61.1 709.8,53.6 720.5,52.4 725.8,43.2 730,52.8 740.6,54.7 732.5,61.7 733.7,72 
			724.5,66.8 		"/>
	</g>
</g>
<g>
	<g>
		<polygon class="st136" points="552.6,53.2 550.4,44 541.5,40.9 549.7,35.7 550.2,26.2 557.5,32.1 566.7,29.4 563,38.3 568.2,46.1 
			558.6,45.6 		"/>
	</g>
</g>
<g>
	<g>
		<polygon class="st137" points="901.8,325.2 910.3,320.1 910.6,310.3 918.4,316.8 928,314.3 924.4,323.4 930,331.7 920,330.8 
			913.8,338.4 911.3,328.8 		"/>
	</g>
	<g>
		<polygon class="st138" points="965.5,287.5 975.7,285.5 979.6,275.9 984.9,285.1 995.3,286.2 988.4,293.8 991,304.1 981.4,299.6 
			972.5,304.9 973.5,294.5 		"/>
	</g>
</g>
<g>
	<polygon class="st139" points="378.9,610.3 389,610.8 394.9,602.6 397.8,612.6 407.4,616 399.1,621.6 399.2,631.9 391.1,625.5 
		381.6,628.4 384.9,618.8 	"/>
</g>
<g>
	<g>
		<polygon class="st140" points="46.6,896.5 46.3,906.8 54.8,912.6 44.8,915.8 41.5,925.6 35.6,917.3 25.1,917.6 31.5,909.3 
			28.3,899.6 38.1,902.8 		"/>
	</g>
	<g>
		<polygon class="st141" points="18.1,877.7 14.4,868.4 4.6,866.4 12.4,859.7 11.6,849.6 20.1,854.8 29.4,850.5 26.8,860.4 
			33.4,867.9 23.3,868.8 		"/>
	</g>
</g>
<g>
	<polygon class="st142" points="90,1000.5 84.6,1008.6 88.6,1017.5 78.9,1015 71.4,1021.3 70.7,1011.7 62.2,1006.7 71.5,1003.2 
		73.7,993.8 80,1001.3 	"/>
</g>
<g>
	<polygon class="st143" points="263.3,996.6 258.4,988.9 249.3,988.8 255.1,981.4 252.6,972.5 261.1,975.7 268.7,970.3 268.2,979.6 
		275.4,985.2 266.5,987.7 	"/>
</g>
<g>
	<polygon class="st144" points="217.6,594.9 226.7,599.2 235.3,593.9 234.2,604.2 241.8,611 232,613.1 228.1,622.6 223.1,613.6 
		213.2,612.7 219.9,605 	"/>
</g>
<g>
	<polygon class="st145" points="651.5,444.7 661.3,448.4 669.7,442.2 669.4,452.9 677.8,459.3 667.8,462.3 664.6,472.5 658.7,463.6 
		648.3,463.5 654.7,455 	"/>
</g>
</svg>
